<svg width="377" height="204" viewBox="0 0 377 204" fill="none" xmlns="http://www.w3.org/2000/svg">
<g clip-path="url(#clip0_370_24092)">
<path d="M289.283 173.193C335.214 127.134 342.847 60.1144 306.333 23.4978C269.823 -13.1148 202.998 -5.46072 157.07 40.5957C111.143 86.6535 124.429 174.648 140.024 190.291C152.626 202.929 243.359 219.249 289.283 173.193Z" fill="#F89939"/>
<path d="M100.825 106.639C74.1796 79.9173 35.4029 75.4687 14.2136 96.7173C-6.97031 117.963 -2.54124 156.857 24.1091 183.574C50.7595 210.303 101.672 202.572 110.715 193.495C118.032 186.169 127.478 133.363 100.825 106.639Z" fill="#3499CD"/>
<path d="M192.758 161.903C188.051 166.248 183.922 169.455 180.373 171.516C176.824 173.583 173.439 174.615 170.218 174.615C166.513 174.615 163.524 173.175 161.258 170.293C158.988 167.408 157.857 163.541 157.857 158.674C157.857 151.384 159.433 142.631 162.585 132.425C165.731 122.212 169.562 112.8 174.061 104.19L187.255 99.2915C187.669 99.1527 187.983 99.082 188.192 99.082C189.193 99.082 190.02 99.8218 190.655 101.295C191.296 102.774 191.619 104.763 191.619 107.262C191.619 114.347 189.993 121.205 186.734 127.838C183.477 134.473 178.389 141.555 171.464 149.091C171.186 152.703 171.048 155.183 171.048 156.539C171.048 159.563 171.601 161.955 172.709 163.727C173.819 165.502 175.289 166.383 177.125 166.383C178.998 166.383 180.987 165.711 183.1 164.357C185.209 162.999 188.429 160.19 192.757 155.915V161.903H192.758ZM172.867 141.54C177.263 136.637 180.834 131.139 183.568 125.055C186.302 118.969 187.667 113.735 187.667 109.349C187.667 108.07 187.479 107.031 187.1 106.251C186.719 105.469 186.231 105.076 185.644 105.076C184.368 105.076 182.503 108.274 180.061 114.673C177.618 121.071 175.221 130.027 172.867 141.54Z" fill="#010101"/>
<path d="M231.614 161.903C227.217 166.248 223.271 169.455 219.772 171.516C216.273 173.583 212.416 174.615 208.189 174.615C203.48 174.615 199.68 173.104 196.784 170.086C193.895 167.06 192.452 163.088 192.452 158.155C192.452 150.795 194.994 144.135 200.091 138.179C205.176 132.221 210.823 129.244 217.02 129.244C220.241 129.244 222.818 130.081 224.76 131.747C226.699 133.415 227.669 135.601 227.669 138.31C227.669 145.5 220.051 151.331 204.815 155.812C206.199 162.581 209.817 165.97 215.67 165.97C217.956 165.97 220.135 165.353 222.212 164.124C224.293 162.889 227.425 160.15 231.615 155.916V161.903H231.614ZM204.396 152.269C213.259 149.767 217.693 145.151 217.693 138.413C217.693 135.08 216.479 133.414 214.059 133.414C211.772 133.414 209.593 135.156 207.517 138.65C205.434 142.138 204.396 146.675 204.396 152.269Z" fill="#010101"/>
<path d="M287.087 161.903C281.546 167.181 277.58 170.623 275.193 172.223C272.804 173.819 270.519 174.616 268.336 174.616C262.864 174.616 260.286 169.773 260.596 160.083C257.134 165.047 253.938 168.711 251.011 171.077C248.087 173.438 245.067 174.616 241.947 174.616C238.904 174.616 236.316 173.187 234.183 170.321C232.05 167.456 230.991 163.941 230.991 159.77C230.991 154.564 232.416 149.598 235.271 144.872C238.131 140.148 241.792 136.332 246.258 133.415C250.724 130.498 254.675 129.037 258.1 129.037C262.43 129.037 265.461 131.035 267.192 135.027L277.808 129.143H280.721L276.136 144.404C273.782 152.081 272.601 157.343 272.601 160.189C272.601 163.174 273.654 164.668 275.768 164.668C277.114 164.668 278.603 163.948 280.231 162.505C281.86 161.062 284.141 158.866 287.084 155.915V161.903H287.087ZM249.065 164.771C252.527 164.771 255.79 161.812 258.86 155.892C261.925 149.969 263.456 144.504 263.456 139.505C263.456 137.563 263.02 136.041 262.159 134.949C261.289 133.851 260.13 133.307 258.679 133.307C255.214 133.307 251.929 136.259 248.836 142.164C245.737 148.069 244.185 153.503 244.185 158.465C244.185 160.343 244.646 161.862 245.562 163.026C246.479 164.19 247.643 164.771 249.065 164.771Z" fill="#010101"/>
<path d="M325.889 161.904C317.196 170.446 310.494 174.72 305.786 174.72C303.672 174.72 301.887 173.825 300.436 172.042C298.985 170.253 298.254 168.037 298.254 165.396C298.254 160.5 300.871 153.939 306.099 145.707C303.535 147.028 300.733 147.945 297.684 148.467C295.433 152.634 291.899 157.115 287.088 161.902H285.896V157.22C288.594 154.407 291.037 151.384 293.219 148.154C290.237 146.833 288.75 144.871 288.75 142.271C288.75 139.593 289.656 136.738 291.479 133.696C293.296 130.66 295.797 129.143 298.985 129.143C301.686 129.143 303.034 130.527 303.034 133.307C303.034 135.495 302.256 138.619 300.695 142.684C306.442 142.057 311.464 137.651 315.76 129.453L320.485 129.243L315.654 142.578C313.647 148.204 312.348 152.037 311.761 154.066C311.174 156.095 310.877 157.896 310.877 159.456C310.877 160.916 311.216 162.083 311.888 162.945C312.564 163.82 313.475 164.25 314.617 164.25C315.862 164.25 317.059 163.823 318.201 162.977C319.343 162.118 321.906 159.768 325.89 155.914V161.904H325.889Z" fill="#010101"/>
<path d="M376.898 161.903C368.9 170.382 362.039 174.617 356.329 174.617C354.009 174.617 352.138 173.801 350.719 172.167C349.296 170.537 348.587 168.35 348.587 165.607C348.587 161.891 350.112 156.212 353.161 148.575C354.787 144.476 355.603 141.868 355.603 140.761C355.603 139.648 355.167 139.092 354.306 139.092C353.821 139.092 353.177 139.337 352.383 139.82C351.652 140.305 350.804 140.988 349.834 141.854C348.971 142.651 347.998 143.624 346.926 144.766C345.989 145.747 344.984 146.856 343.916 148.102L341.003 151.491C339.725 153.053 338.927 154.7 338.617 156.438C338.095 159.389 337.75 162.101 337.575 164.569C337.469 166.405 337.419 168.886 337.419 172.018L325.94 174.721C325.561 170.034 325.367 166.542 325.367 164.254C325.367 158.663 326.017 153.365 327.318 148.366C328.615 143.361 330.7 137.739 333.576 131.486L346.248 129.039C343.583 136.229 341.835 141.887 341.003 146.017C346.683 139.663 351.185 135.265 354.523 132.813C357.855 130.364 360.822 129.145 363.415 129.145C365.176 129.145 366.649 129.812 367.822 131.146C369 132.481 369.586 134.158 369.586 136.163C369.586 139.493 368.097 144.981 365.123 152.624C363.078 157.866 362.056 161.267 362.056 162.838C362.056 164.928 362.906 165.973 364.607 165.973C367.138 165.973 371.239 162.62 376.898 155.918V161.903Z" fill="#010101"/>
<path d="M209.487 94.4044C209.535 94.9453 209.671 95.36 209.893 95.6485C210.302 96.1714 211.011 96.4329 212.021 96.4329C212.622 96.4329 213.15 96.3037 213.607 96.0452C214.064 95.7808 214.292 95.3751 214.292 94.8281C214.292 94.4134 214.109 94.0979 213.742 93.8815C213.508 93.7493 213.045 93.596 212.354 93.4217L211.065 93.0972C210.241 92.8928 209.634 92.6644 209.244 92.412C208.547 91.9732 208.198 91.3662 208.198 90.5909C208.198 89.6773 208.526 88.9381 209.181 88.3731C209.842 87.8081 210.728 87.5256 211.84 87.5256C213.295 87.5256 214.344 87.9524 214.987 88.8058C215.389 89.3468 215.585 89.9298 215.573 90.5548H214.04C214.01 90.1882 213.881 89.8546 213.652 89.5541C213.28 89.1274 212.634 88.914 211.714 88.914C211.101 88.914 210.635 89.0312 210.317 89.2656C210.004 89.5 209.848 89.8095 209.848 90.1942C209.848 90.6149 210.055 90.9515 210.47 91.2039C210.71 91.3542 211.065 91.4864 211.534 91.6006L212.607 91.8621C213.773 92.1445 214.554 92.418 214.951 92.6825C215.582 93.0972 215.897 93.7493 215.897 94.6388C215.897 95.4983 215.57 96.2406 214.914 96.8656C214.265 97.4907 213.274 97.8032 211.939 97.8032C210.503 97.8032 209.484 97.4787 208.883 96.8296C208.288 96.1744 207.97 95.3661 207.928 94.4044H209.487ZM221.478 87.4986C222.566 87.4986 223.449 87.763 224.128 88.2919C224.813 88.8209 225.225 89.7314 225.363 91.0236H223.786C223.69 90.4286 223.47 89.9358 223.128 89.5451C222.785 89.1484 222.235 88.9501 221.478 88.9501C220.444 88.9501 219.705 89.4549 219.26 90.4647C218.971 91.1198 218.827 91.9282 218.827 92.8898C218.827 93.8575 219.032 94.6719 219.44 95.333C219.849 95.9941 220.492 96.3247 221.37 96.3247C222.043 96.3247 222.575 96.1203 222.965 95.7116C223.362 95.2969 223.635 94.732 223.786 94.0167H225.363C225.183 95.2969 224.732 96.2345 224.011 96.8296C223.29 97.4186 222.367 97.7131 221.243 97.7131C219.981 97.7131 218.974 97.2533 218.223 96.3337C217.472 95.4081 217.096 94.2542 217.096 92.8718C217.096 91.1769 217.508 89.8576 218.331 88.914C219.155 87.9704 220.204 87.4986 221.478 87.4986ZM226.986 87.8231H228.636V97.4336H226.986V87.8231ZM226.986 84.1899H228.636V86.0291H226.986V84.1899ZM231.061 84.1899H232.621V91.8801L236.786 87.7781H238.859L235.163 91.3933L239.067 97.4336H236.993L233.982 92.5653L232.621 93.8094V97.4336H231.061V84.1899ZM240.329 87.8231H241.979V97.4336H240.329V87.8231ZM240.329 84.1899H241.979V86.0291H240.329V84.1899ZM244.765 85.0825H246.405V87.7781H247.947V89.1033H246.405V95.4051C246.405 95.7417 246.52 95.9671 246.748 96.0813C246.874 96.1474 247.085 96.1804 247.379 96.1804C247.457 96.1804 247.541 96.1804 247.631 96.1804C247.722 96.1744 247.827 96.1654 247.947 96.1534V97.4336C247.761 97.4877 247.565 97.5268 247.361 97.5508C247.163 97.5748 246.946 97.5869 246.712 97.5869C245.955 97.5869 245.441 97.3945 245.17 97.0099C244.9 96.6192 244.765 96.1143 244.765 95.4953V89.1033H243.457V87.7781H244.765V85.0825Z" fill="white"/>
</g>
<defs>
<clipPath id="clip0_370_24092">
<rect width="377" height="204" fill="white"/>
</clipPath>
</defs>
</svg>
